<svg width="33.000000" height="31.701172" viewBox="0 0 33 31.7012" fill="none" xmlns="http://www.w3.org/2000/svg" xmlns:xlink="http://www.w3.org/1999/xlink">
	<desc>
			Created with Pixso.
	</desc>
	<defs/>
	<path id="Vector" d="M32.94 18.18L30.43 3.11C30.09 1.06 28.25 -0.31 26.32 0.05L4.83 4.07C2.9 4.43 1.61 6.39 1.95 8.44L2.13 9.54C0.88 10.13 0 11.46 0 13L0 27.93C0 30 1.59 31.7 3.55 31.7L24.88 31.7C26.84 31.7 28.43 30 28.43 27.93L28.43 22.85L30.06 22.55C30.99 22.37 31.81 21.82 32.35 21C32.9 20.17 33.1 19.17 32.94 18.18ZM30.76 19.82C30.52 20.19 30.14 20.44 29.72 20.52L28.43 20.76L28.43 19.59L28.43 14.92L28.43 13C28.43 10.92 26.84 9.23 24.88 9.23L4.05 9.23L3.86 8.08C3.78 7.63 3.88 7.18 4.13 6.8C4.37 6.43 4.74 6.17 5.17 6.1L26.65 2.08C26.75 2.06 26.84 2.05 26.94 2.05C27.7 2.05 28.39 2.64 28.53 3.47L31.03 18.54C31.11 18.99 31.01 19.44 30.76 19.82ZM24.88 29.64L3.55 29.64C2.66 29.64 1.93 28.87 1.93 27.93L1.93 20.62L26.49 20.62L26.49 27.93C26.49 28.87 25.77 29.64 24.88 29.64ZM3.55 11.29L24.88 11.29C25.77 11.29 26.49 12.06 26.49 13L26.49 13.9L1.93 13.9L1.93 13C1.93 12.06 2.66 11.29 3.55 11.29ZM26.49 15.95L26.49 18.56L1.93 18.56L1.93 15.95L26.49 15.95Z" fill="#041E42" fill-opacity="1.000000" fill-rule="nonzero"/>
</svg>
